<?xml version="1.0" encoding="UTF-8" standalone="no"?>
<!DOCTYPE svg PUBLIC "-//W3C//DTD SVG 1.1//EN" "http://www.w3.org/Graphics/SVG/1.1/DTD/svg11.dtd">
<svg version="1.1" xmlns="http://www.w3.org/2000/svg" xmlns:xlink="http://www.w3.org/1999/xlink" preserveAspectRatio="xMidYMid meet" viewBox="0 0 128 128" width="128" height="128"><defs><path d="M128 64C128 99.32 99.32 128 64 128C28.68 128 0 99.32 0 64C0 28.68 28.68 0 64 0C99.32 0 128 28.68 128 64Z" id="c28rantZTQ"></path><path d="M67.54 27.76L68.93 28.03L70.26 28.4L71.53 28.85L72.74 29.4L73.88 30.03L74.93 30.74L75.91 31.52L76.79 32.36L77.58 33.27L78.26 34.24L78.84 35.26L79.29 36.32L79.63 37.43L79.83 38.57L79.9 39.75L79.83 40.92L79.63 42.07L79.29 43.17L79.17 43.46L80.08 43.56L81.46 43.83L82.79 44.19L84.07 44.65L85.27 45.2L86.41 45.83L87.47 46.54L88.44 47.32L88.79 47.65L89.54 47.5L90.97 47.34L92.44 47.28L93.91 47.34L95.34 47.5L96.72 47.77L98.05 48.14L99.32 48.6L100.53 49.14L101.67 49.77L102.73 50.48L103.7 51.26L104.59 52.11L105.37 53.02L106.06 53.98L106.63 55L107.09 56.07L107.42 57.17L107.63 58.32L107.7 59.49L107.63 60.67L107.42 61.81L107.09 62.92L106.63 63.98L106.06 65L105.37 65.97L104.59 66.87L103.7 67.72L102.73 68.5L101.67 69.21L100.53 69.84L99.32 70.38L98.05 70.84L96.72 71.21L95.34 71.48L93.91 71.64L92.44 71.7L90.97 71.64L89.54 71.48L88.16 71.21L86.83 70.84L85.55 70.38L84.35 69.84L83.21 69.21L82.15 68.5L82.07 68.43L81.68 68.8L80.71 69.58L79.65 70.29L79.58 70.33L72.02 80.45L83.4 83.5L54.37 105.35L65.41 86.91L57.44 84.78L65.13 72.01L64.81 71.92L64.56 71.84L64.32 71.92L62.99 72.29L61.6 72.56L60.18 72.72L58.71 72.78L57.24 72.72L55.81 72.56L54.43 72.29L53.09 71.92L51.82 71.46L50.61 70.92L49.48 70.29L48.42 69.58L47.44 68.8L46.56 67.95L46.55 67.94L45.85 68.5L44.79 69.21L43.65 69.84L42.45 70.38L41.17 70.84L39.84 71.21L38.46 71.48L37.03 71.64L35.56 71.7L34.09 71.64L32.66 71.48L31.28 71.21L29.95 70.84L28.68 70.38L27.47 69.84L26.33 69.21L25.27 68.5L24.3 67.72L23.41 66.87L22.63 65.97L21.94 65L21.37 63.98L20.91 62.92L20.58 61.81L20.37 60.67L20.3 59.49L20.37 58.32L20.58 57.17L20.91 56.07L21.37 55L21.94 53.98L22.63 53.02L23.41 52.11L24.3 51.26L25.27 50.48L26.33 49.77L27.47 49.14L28.68 48.6L29.95 48.14L31.28 47.77L31.43 47.74L31.41 47.28L31.48 46.11L31.68 44.97L32.02 43.86L32.47 42.79L33.05 41.78L33.73 40.81L34.52 39.9L35.4 39.05L36.38 38.27L37.43 37.57L38.57 36.94L39.78 36.39L41.05 35.93L42.38 35.56L43.77 35.3L45.2 35.13L46.66 35.08L48.13 35.13L49.56 35.3L50.37 35.45L50.45 35.26L51.03 34.24L51.71 33.27L52.5 32.36L53.38 31.52L54.36 30.74L55.42 30.03L56.55 29.4L57.76 28.85L59.03 28.4L60.36 28.03L61.75 27.76L63.18 27.6L64.65 27.54L66.11 27.6L67.54 27.76Z" id="a2BlMVn1lS"></path></defs><g><g><g><use xlink:href="#c28rantZTQ" opacity="1" fill="#4e7eff" fill-opacity="1"></use></g><g><use xlink:href="#a2BlMVn1lS" opacity="1" fill="#ffffff" fill-opacity="1"></use></g></g></g></svg>